# xmcd
#
# Track frame offsets:
#	150
#	1891
#	16691
#	31017
#	41031
#	45671
#	49086
#	64008
#	73791
#	85131
#	87583
#	106916
#	122944
#	139551
#	151490
#	164612
#	182306
#
# Disc length: 2521 seconds
#
# Revision: 2
# Processed by: cddbd v1.5.2PL0 Copyright (c) Steve Scherf et al.
# Submitted via: EasyCDDAExtractor 16.0.6.1
#
DISCID=d409d711
DTITLE=Mighty Mo Rodgers - Mud 'N Blood A Mississipi Blues Tale
DYEAR=2014
DGENRE=Blues
TTITLE0=Goin' South
TTITLE1=Haunted By The Blues
TTITLE2=The Ghost Of Highway 61
TTITLE3=Unmarked grave
TTITLE4=Run Brother Run
TTITLE5=Backroad Blues
TTITLE6=Devil Train Boogie
TTITLE7=I Got A Call From The Devil
TTITLE8=The People Could Fly
TTITLE9=Drivin' Up
TTITLE10=Juke Joint Jumpin'
TTITLE11=White Lightnin' and High Yella
TTITLE12=Love Will Only Make You Sweat
TTITLE13=Everybody Needs The Blues
TTITLE14=Thank You Mississippi
TTITLE15=Almost Home
TTITLE16=Press conference
EXTD=
EXTT0=
EXTT1=
EXTT2=
EXTT3=
EXTT4=
EXTT5=
EXTT6=
EXTT7=
EXTT8=
EXTT9=
EXTT10=
EXTT11=
EXTT12=
EXTT13=
EXTT14=
EXTT15=
EXTT16=
PLAYORDER=
